<?xml version="1.0" standalone="no"?>
<!DOCTYPE svg PUBLIC "-//W3C//DTD SVG 1.1//EN"
"http://www.w3.org/Graphics/SVG/1.1/DTD/svg11.dtd">

<svg width="962" height="559" view_box="0 0 962 559"
xmlns="http://www.w3.org/2000/svg"
xmlns:link="http://www.w3.org/1999/xlink">\n\n<desc>Généré par Mocodo 2.3.7 le Fri, 25 Mar 2022 17:36:45</desc>

<rect id="frame" x="0" y="0" width="962" height="559" fill="#ffffbf" stroke="none" stroke-width="0"/>

<!-- Association PARTICIPE -->
<line x1="317" y1="491" x2="108" y2="491" stroke="#f46d43" stroke-width="2"/>
<text x="224" y="508.0" fill="#4575b4" font-family="Verdana" font-size="12">0,N</text>
<line x1="108" y1="356" x2="108" y2="491" stroke="#f46d43" stroke-width="2"/>
<text x="113.0" y="432" fill="#4575b4" font-family="Verdana" font-size="12">0,N</text>
<g id="association-PARTICIPE">
	<path d="M 148 457 a 14 14 90 0 1 14 14 V 482 h -108 V 471 a 14 14 90 0 1 14 -14" fill="#fdae61" stroke="#fdae61" stroke-width="0"/>
	<path d="M 162 482.0 v 29 a 14 14 90 0 1 -14 14 H 68 a 14 14 90 0 1 -14 -14 V 482.0 H 108" fill="#fee090" stroke="#fee090" stroke-width="0"/>
	<rect x="54" y="457" width="108" height="68" fill="none" rx="14" stroke="#f46d43" stroke-width="2"/>
	<line x1="54" y1="482" x2="162" y2="482" stroke="#f46d43" stroke-width="1"/>
	<text x="75" y="474.7" fill="#000000" font-family="Verdana" font-size="12">PARTICIPE</text>
	<text x="61" y="499.8" fill="#000000" font-family="Verdana" font-size="12">OeuvreAchetee</text>
	<text x="61" y="516.8" fill="#000000" font-family="Verdana" font-size="12">OeuvreVendue</text>
</g>

<!-- Association JUGE -->
<line x1="743" y1="221" x2="606" y2="221" stroke="#f46d43" stroke-width="2"/>
<text x="655" y="238.0" fill="#4575b4" font-family="Verdana" font-size="12">0,N</text>
<line x1="480" y1="356" x2="606" y2="221" stroke="#f46d43" stroke-width="2"/>
<text x="514" y="335.202190882" fill="#4575b4" font-family="Verdana" font-size="12">0,N</text>
<g id="association-JUGE">
	<path d="M 635 196 a 14 14 90 0 1 14 14 V 221 h -86 V 210 a 14 14 90 0 1 14 -14" fill="#fdae61" stroke="#fdae61" stroke-width="0"/>
	<path d="M 649 221.0 v 11 a 14 14 90 0 1 -14 14 H 577 a 14 14 90 0 1 -14 -14 V 221.0 H 86" fill="#fee090" stroke="#fee090" stroke-width="0"/>
	<rect x="563" y="196" width="86" height="50" fill="none" rx="14" stroke="#f46d43" stroke-width="2"/>
	<line x1="563" y1="221" x2="649" y2="221" stroke="#f46d43" stroke-width="1"/>
	<text x="590" y="213.7" fill="#000000" font-family="Verdana" font-size="12">JUGE</text>
	<text x="570" y="238.8" fill="#000000" font-family="Verdana" font-size="12">coteDonnee</text>
</g>

<!-- Association EXPERTISE -->
<line x1="743" y1="356" x2="606" y2="356" stroke="#f46d43" stroke-width="2"/>
<text x="659" y="373.0" fill="#4575b4" font-family="Verdana" font-size="12">1,N</text>
<line x1="480" y1="356" x2="606" y2="356" stroke="#f46d43" stroke-width="2"/>
<text x="514" y="373.0" fill="#4575b4" font-family="Verdana" font-size="12">0,N</text>
<g id="association-EXPERTISE">
	<path d="M 633 331 a 14 14 90 0 1 14 14 V 356 h -82 V 345 a 14 14 90 0 1 14 -14" fill="#fdae61" stroke="#fdae61" stroke-width="0"/>
	<path d="M 647 356.0 v 11 a 14 14 90 0 1 -14 14 H 579 a 14 14 90 0 1 -14 -14 V 356.0 H 82" fill="#fee090" stroke="#fee090" stroke-width="0"/>
	<rect x="565" y="331" width="82" height="50" fill="none" rx="14" stroke="#f46d43" stroke-width="2"/>
	<line x1="565" y1="356" x2="647" y2="356" stroke="#f46d43" stroke-width="1"/>
	<text x="572" y="348.7" fill="#000000" font-family="Verdana" font-size="12">EXPERTISE</text>
</g>

<!-- Association POSSEDE -->
<line x1="317" y1="491" x2="480" y2="491" stroke="#f46d43" stroke-width="2"/>
<text x="388" y="508.0" fill="#4575b4" font-family="Verdana" font-size="12">0,N</text>
<line x1="480" y1="356" x2="480" y2="491" stroke="#f46d43" stroke-width="2"/>
<text x="453.0" y="432" fill="#4575b4" font-family="Verdana" font-size="12">0,N</text>
<g id="association-POSSEDE">
	<path d="M 505 457 a 14 14 90 0 1 14 14 V 482 h -78 V 471 a 14 14 90 0 1 14 -14" fill="#fdae61" stroke="#fdae61" stroke-width="0"/>
	<path d="M 519 482.0 v 29 a 14 14 90 0 1 -14 14 H 455 a 14 14 90 0 1 -14 -14 V 482.0 H 78" fill="#fee090" stroke="#fee090" stroke-width="0"/>
	<rect x="441" y="457" width="78" height="68" fill="none" rx="14" stroke="#f46d43" stroke-width="2"/>
	<line x1="441" y1="482" x2="519" y2="482" stroke="#f46d43" stroke-width="1"/>
	<text x="450" y="474.7" fill="#000000" font-family="Verdana" font-size="12">POSSEDE</text>
	<text x="448" y="499.8" fill="#000000" font-family="Verdana" font-size="12">dateDebut</text>
	<text x="448" y="516.8" fill="#000000" font-family="Verdana" font-size="12">dateFin</text>
</g>

<!-- Association EXPOSE -->
<line x1="480" y1="356" x2="606" y2="77" stroke="#f46d43" stroke-width="2"/>
<text x="488.182189494" y="289" fill="#4575b4" font-family="Verdana" font-size="12">0,N</text>
<line x1="743" y1="77" x2="606" y2="77" stroke="#f46d43" stroke-width="2"/>
<text x="665" y="94.0" fill="#4575b4" font-family="Verdana" font-size="12">N,N</text>
<g id="association-EXPOSE">
	<path d="M 632 52 a 14 14 90 0 1 14 14 V 77 h -80 V 66 a 14 14 90 0 1 14 -14" fill="#fdae61" stroke="#fdae61" stroke-width="0"/>
	<path d="M 646 77.0 v 11 a 14 14 90 0 1 -14 14 H 580 a 14 14 90 0 1 -14 -14 V 77.0 H 80" fill="#fee090" stroke="#fee090" stroke-width="0"/>
	<rect x="566" y="52" width="80" height="50" fill="none" rx="14" stroke="#f46d43" stroke-width="2"/>
	<line x1="566" y1="77" x2="646" y2="77" stroke="#f46d43" stroke-width="1"/>
	<text x="581" y="69.7" fill="#000000" font-family="Verdana" font-size="12">EXPOSE</text>
	<text x="573" y="94.8" fill="#000000" font-family="Verdana" font-size="12">dureeExpo</text>
</g>

<!-- Association AIDE -->
<line x1="893" y1="356" x2="893" y2="491" stroke="#f46d43" stroke-width="2"/>
<text x="898.0" y="432" fill="#4575b4" font-family="Verdana" font-size="12">0,N</text>
<line x1="743" y1="491" x2="893" y2="491" stroke="#f46d43" stroke-width="2"/>
<text x="805" y="508.0" fill="#4575b4" font-family="Verdana" font-size="12">0,N</text>
<g id="association-AIDE">
	<path d="M 902 466 a 14 14 90 0 1 14 14 V 491 h -46 V 480 a 14 14 90 0 1 14 -14" fill="#fdae61" stroke="#fdae61" stroke-width="0"/>
	<path d="M 916 491.0 v 11 a 14 14 90 0 1 -14 14 H 884 a 14 14 90 0 1 -14 -14 V 491.0 H 46" fill="#fee090" stroke="#fee090" stroke-width="0"/>
	<rect x="870" y="466" width="46" height="50" fill="none" rx="14" stroke="#f46d43" stroke-width="2"/>
	<line x1="870" y1="491" x2="916" y2="491" stroke="#f46d43" stroke-width="1"/>
	<text x="877" y="483.7" fill="#000000" font-family="Verdana" font-size="12">AIDE</text>
</g>

<!-- Association VEND -->
<line x1="317" y1="491" x2="317" y2="356" stroke="#f46d43" stroke-width="2"/>
<text x="322.0" y="432" fill="#4575b4" font-family="Verdana" font-size="12">0,N</text>
<line x1="480" y1="356" x2="317" y2="356" stroke="#f46d43" stroke-width="2"/>
<text x="424" y="373.0" fill="#4575b4" font-family="Verdana" font-size="12">0,N</text>
<g id="association-VEND">
	<path d="M 350 322 a 14 14 90 0 1 14 14 V 347 h -94 V 336 a 14 14 90 0 1 14 -14" fill="#fdae61" stroke="#fdae61" stroke-width="0"/>
	<path d="M 364 347.0 v 29 a 14 14 90 0 1 -14 14 H 284 a 14 14 90 0 1 -14 -14 V 347.0 H 94" fill="#fee090" stroke="#fee090" stroke-width="0"/>
	<rect x="270" y="322" width="94" height="68" fill="none" rx="14" stroke="#f46d43" stroke-width="2"/>
	<line x1="270" y1="347" x2="364" y2="347" stroke="#f46d43" stroke-width="1"/>
	<text x="299" y="339.7" fill="#000000" font-family="Verdana" font-size="12">VEND</text>
	<text x="277" y="364.8" fill="#000000" font-family="Verdana" font-size="12">prixVente</text>
	<text x="277" y="381.8" fill="#000000" font-family="Verdana" font-size="12">dateDeVente</text>
</g>

<!-- Association RESTAURE -->
<line x1="317" y1="77" x2="317" y2="221" stroke="#f46d43" stroke-width="2"/>
<text x="322.0" y="145" fill="#4575b4" font-family="Verdana" font-size="12">1,N</text>
<line x1="480" y1="356" x2="317" y2="221" stroke="#f46d43" stroke-width="2"/>
<text x="424" y="342.846063113" fill="#4575b4" font-family="Verdana" font-size="12">0,N</text>
<g id="association-RESTAURE">
	<path d="M 361 196 a 14 14 90 0 1 14 14 V 221 h -116 V 210 a 14 14 90 0 1 14 -14" fill="#fdae61" stroke="#fdae61" stroke-width="0"/>
	<path d="M 375 221.0 v 11 a 14 14 90 0 1 -14 14 H 273 a 14 14 90 0 1 -14 -14 V 221.0 H 116" fill="#fee090" stroke="#fee090" stroke-width="0"/>
	<rect x="259" y="196" width="116" height="50" fill="none" rx="14" stroke="#f46d43" stroke-width="2"/>
	<line x1="259" y1="221" x2="375" y2="221" stroke="#f46d43" stroke-width="1"/>
	<text x="284" y="213.7" fill="#000000" font-family="Verdana" font-size="12">RESTAURE</text>
	<text x="266" y="238.8" fill="#000000" font-family="Verdana" font-size="12">prixRestauration</text>
</g>

<!-- Association DIRIGE -->
<line x1="108" y1="77" x2="108" y2="221" stroke="#f46d43" stroke-width="2"/>
<text x="113.0" y="136" fill="#4575b4" font-family="Verdana" font-size="12">0,1</text>
<line x1="108" y1="356" x2="108" y2="221" stroke="#f46d43" stroke-width="2"/>
<text x="113.0" y="289" fill="#4575b4" font-family="Verdana" font-size="12">1,1</text>
<g id="association-DIRIGE">
	<path d="M 124 196 a 14 14 90 0 1 14 14 V 221 h -60 V 210 a 14 14 90 0 1 14 -14" fill="#fdae61" stroke="#fdae61" stroke-width="0"/>
	<path d="M 138 221.0 v 11 a 14 14 90 0 1 -14 14 H 92 a 14 14 90 0 1 -14 -14 V 221.0 H 60" fill="#fee090" stroke="#fee090" stroke-width="0"/>
	<rect x="78" y="196" width="60" height="50" fill="none" rx="14" stroke="#f46d43" stroke-width="2"/>
	<line x1="78" y1="221" x2="138" y2="221" stroke="#f46d43" stroke-width="1"/>
	<text x="85" y="213.7" fill="#000000" font-family="Verdana" font-size="12">DIRIGE</text>
</g>

<!-- Association PRET -->
<line x1="480" y1="356" x2="480" y2="221" stroke="#f46d43" stroke-width="2"/>
<text x="458.0" y="289" fill="#4575b4" font-family="Verdana" font-size="12">0,N</text>
<line x1="480" y1="77" x2="480" y2="221" stroke="#f46d43" stroke-width="2"/>
<text x="485.0" y="145" fill="#4575b4" font-family="Verdana" font-size="12">N,N</text>
<g id="association-PRET">
	<path d="M 503 196 a 14 14 90 0 1 14 14 V 221 h -74 V 210 a 14 14 90 0 1 14 -14" fill="#fdae61" stroke="#fdae61" stroke-width="0"/>
	<path d="M 517 221.0 v 11 a 14 14 90 0 1 -14 14 H 457 a 14 14 90 0 1 -14 -14 V 221.0 H 74" fill="#fee090" stroke="#fee090" stroke-width="0"/>
	<rect x="443" y="196" width="74" height="50" fill="none" rx="14" stroke="#f46d43" stroke-width="2"/>
	<line x1="443" y1="221" x2="517" y2="221" stroke="#f46d43" stroke-width="1"/>
	<text x="464" y="213.7" fill="#000000" font-family="Verdana" font-size="12">PRET</text>
	<text x="450" y="238.8" fill="#000000" font-family="Verdana" font-size="12">dureePret</text>
</g>

<!-- Association CREE -->
<line x1="743" y1="491" x2="606" y2="491" stroke="#f46d43" stroke-width="2"/>
<text x="659" y="508.0" fill="#4575b4" font-family="Verdana" font-size="12">0,N</text>
<line x1="480" y1="356" x2="606" y2="491" stroke="#f46d43" stroke-width="2"/>
<text x="514" y="425.797809118" fill="#4575b4" font-family="Verdana" font-size="12">0,N</text>
<g id="association-CREE">
	<path d="M 616 466 a 14 14 90 0 1 14 14 V 491 h -48 V 480 a 14 14 90 0 1 14 -14" fill="#fdae61" stroke="#fdae61" stroke-width="0"/>
	<path d="M 630 491.0 v 11 a 14 14 90 0 1 -14 14 H 596 a 14 14 90 0 1 -14 -14 V 491.0 H 48" fill="#fee090" stroke="#fee090" stroke-width="0"/>
	<rect x="582" y="466" width="48" height="50" fill="none" rx="14" stroke="#f46d43" stroke-width="2"/>
	<line x1="582" y1="491" x2="630" y2="491" stroke="#f46d43" stroke-width="1"/>
	<text x="589" y="483.7" fill="#000000" font-family="Verdana" font-size="12">CREE</text>
</g>

<!-- Entity P1_CREANCIER -->
<g id="entity-P1_CREANCIER">
	<g id="frame-P1_CREANCIER">
		<rect x="251" y="440" width="132" height="25" fill="#abd9e9" stroke="#abd9e9" stroke-width="0"/>
		<rect x="251" y="465.0" width="132" height="77" fill="#e0f3f8" stroke="#e0f3f8" stroke-width="0"/>
		<rect x="251" y="440" width="132" height="102" fill="none" stroke="#74add1" stroke-width="2"/>
		<line x1="251" y1="465" x2="383" y2="465" stroke="#74add1" stroke-width="1"/>
	</g>
	<text x="270" y="457.7" fill="#000000" font-family="Verdana" font-size="12">P1_CREANCIER</text>
	<text x="256" y="482.7" fill="#000000" font-family="Verdana" font-size="12">idCreancier</text>
	<line x1="256" y1="485" x2="325" y2="485" stroke="#000000" stroke-width="1"/>
	<text x="256" y="499.8" fill="#000000" font-family="Verdana" font-size="12">nomCreancier</text>
	<text x="256" y="516.8" fill="#000000" font-family="Verdana" font-size="12">capitalCreancier</text>
	<text x="256" y="533.8" fill="#000000" font-family="Verdana" font-size="12">nationaliteCreancier</text>
</g>

<!-- Entity P1_RESTAURATEUR -->
<g id="entity-P1_RESTAURATEUR">
	<g id="frame-P1_RESTAURATEUR">
		<rect x="240" y="26" width="154" height="25" fill="#abd9e9" stroke="#abd9e9" stroke-width="0"/>
		<rect x="240" y="51.0" width="154" height="77" fill="#e0f3f8" stroke="#e0f3f8" stroke-width="0"/>
		<rect x="240" y="26" width="154" height="102" fill="none" stroke="#74add1" stroke-width="2"/>
		<line x1="240" y1="51" x2="394" y2="51" stroke="#74add1" stroke-width="1"/>
	</g>
	<text x="256" y="43.7" fill="#000000" font-family="Verdana" font-size="12">P1_RESTAURATEUR</text>
	<text x="245" y="68.7" fill="#000000" font-family="Verdana" font-size="12">idRestaurateur</text>
	<line x1="245" y1="71" x2="335" y2="71" stroke="#000000" stroke-width="1"/>
	<text x="245" y="85.8" fill="#000000" font-family="Verdana" font-size="12">nomRestaurateur</text>
	<text x="245" y="102.8" fill="#000000" font-family="Verdana" font-size="12">typeRestaurateur</text>
	<text x="245" y="119.8" fill="#000000" font-family="Verdana" font-size="12">nationaliteRestaurateur</text>
</g>

<!-- Entity P1_COMMISSAIRES-PRISEURS -->
<g id="entity-P1_COMMISSAIRES-PRISEURS">
	<g id="frame-P1_COMMISSAIRES-PRISEURS">
		<rect x="9" y="35" width="198" height="25" fill="#abd9e9" stroke="#abd9e9" stroke-width="0"/>
		<rect x="9" y="60.0" width="198" height="59" fill="#e0f3f8" stroke="#e0f3f8" stroke-width="0"/>
		<rect x="9" y="35" width="198" height="84" fill="none" stroke="#74add1" stroke-width="2"/>
		<line x1="9" y1="60" x2="207" y2="60" stroke="#74add1" stroke-width="1"/>
	</g>
	<text x="14" y="52.7" fill="#000000" font-family="Verdana" font-size="12">P1_COMMISSAIRES-PRISEURS</text>
	<text x="14" y="77.8" fill="#000000" font-family="Verdana" font-size="12">idCommissaire</text>
	<line x1="14" y1="80" x2="103" y2="80" stroke="#000000" stroke-width="1"/>
	<text x="14" y="94.8" fill="#000000" font-family="Verdana" font-size="12">nomCommissaire</text>
	<text x="14" y="111.8" fill="#000000" font-family="Verdana" font-size="12">nationaliteCommissaire</text>
</g>

<!-- Entity P1_EXPERT -->
<g id="entity-P1_EXPERT">
	<g id="frame-P1_EXPERT">
		<rect x="686" y="305" width="114" height="25" fill="#abd9e9" stroke="#abd9e9" stroke-width="0"/>
		<rect x="686" y="330.0" width="114" height="77" fill="#e0f3f8" stroke="#e0f3f8" stroke-width="0"/>
		<rect x="686" y="305" width="114" height="102" fill="none" stroke="#74add1" stroke-width="2"/>
		<line x1="686" y1="330" x2="800" y2="330" stroke="#74add1" stroke-width="1"/>
	</g>
	<text x="708" y="322.7" fill="#000000" font-family="Verdana" font-size="12">P1_EXPERT</text>
	<text x="691" y="347.7" fill="#000000" font-family="Verdana" font-size="12">idExpert</text>
	<line x1="691" y1="350" x2="742" y2="350" stroke="#000000" stroke-width="1"/>
	<text x="691" y="364.8" fill="#000000" font-family="Verdana" font-size="12">nomExpert</text>
	<text x="691" y="381.8" fill="#000000" font-family="Verdana" font-size="12">typeExpert</text>
	<text x="691" y="398.8" fill="#000000" font-family="Verdana" font-size="12">nationaliteExpert</text>
</g>

<!-- Entity P1_MECENE -->
<g id="entity-P1_MECENE">
	<g id="frame-P1_MECENE">
		<rect x="833" y="297" width="120" height="25" fill="#abd9e9" stroke="#abd9e9" stroke-width="0"/>
		<rect x="833" y="322.0" width="120" height="93" fill="#e0f3f8" stroke="#e0f3f8" stroke-width="0"/>
		<rect x="833" y="297" width="120" height="118" fill="none" stroke="#74add1" stroke-width="2"/>
		<line x1="833" y1="322" x2="953" y2="322" stroke="#74add1" stroke-width="1"/>
	</g>
	<text x="856" y="314.7" fill="#000000" font-family="Verdana" font-size="12">P1_MECENE</text>
	<text x="838" y="339.7" fill="#000000" font-family="Verdana" font-size="12">idMecene</text>
	<line x1="838" y1="342" x2="895" y2="342" stroke="#000000" stroke-width="1"/>
	<text x="838" y="356.8" fill="#000000" font-family="Verdana" font-size="12">nomMecene</text>
	<text x="838" y="373.8" fill="#000000" font-family="Verdana" font-size="12">reputationMecene</text>
	<text x="838" y="390.8" fill="#000000" font-family="Verdana" font-size="12">capitalMecene</text>
	<text x="838" y="407.8" fill="#000000" font-family="Verdana" font-size="12">nationaliteMecene</text>
</g>

<!-- Entity P1_ART -->
<g id="entity-P1_ART">
	<g id="frame-P1_ART">
		<rect x="451" y="297" width="58" height="25" fill="#abd9e9" stroke="#abd9e9" stroke-width="0"/>
		<rect x="451" y="322.0" width="58" height="93" fill="#e0f3f8" stroke="#e0f3f8" stroke-width="0"/>
		<rect x="451" y="297" width="58" height="118" fill="none" stroke="#74add1" stroke-width="2"/>
		<line x1="451" y1="322" x2="509" y2="322" stroke="#74add1" stroke-width="1"/>
	</g>
	<text x="456" y="314.7" fill="#000000" font-family="Verdana" font-size="12">P1_ART</text>
	<text x="456" y="339.7" fill="#000000" font-family="Verdana" font-size="12">idArt</text>
	<line x1="456" y1="342" x2="486" y2="342" stroke="#000000" stroke-width="1"/>
	<text x="456" y="356.8" fill="#000000" font-family="Verdana" font-size="12">titre</text>
	<text x="456" y="373.8" fill="#000000" font-family="Verdana" font-size="12">type</text>
	<text x="456" y="390.8" fill="#000000" font-family="Verdana" font-size="12">cote</text>
	<text x="456" y="407.8" fill="#000000" font-family="Verdana" font-size="12">date</text>
</g>

<!-- Entity P1_MUSEE -->
<g id="entity-P1_MUSEE">
	<g id="frame-P1_MUSEE">
		<rect x="427" y="26" width="106" height="25" fill="#abd9e9" stroke="#abd9e9" stroke-width="0"/>
		<rect x="427" y="51.0" width="106" height="77" fill="#e0f3f8" stroke="#e0f3f8" stroke-width="0"/>
		<rect x="427" y="26" width="106" height="102" fill="none" stroke="#74add1" stroke-width="2"/>
		<line x1="427" y1="51" x2="533" y2="51" stroke="#74add1" stroke-width="1"/>
	</g>
	<text x="447" y="43.7" fill="#000000" font-family="Verdana" font-size="12">P1_MUSEE</text>
	<text x="432" y="68.7" fill="#000000" font-family="Verdana" font-size="12">idMusee</text>
	<line x1="432" y1="71" x2="482" y2="71" stroke="#000000" stroke-width="1"/>
	<text x="432" y="85.8" fill="#000000" font-family="Verdana" font-size="12">nomMusee</text>
	<text x="432" y="102.8" fill="#000000" font-family="Verdana" font-size="12">dateDeCreation</text>
	<text x="432" y="119.8" fill="#000000" font-family="Verdana" font-size="12">adresseMusee</text>
</g>

<!-- Entity P1_ARTISTE -->
<g id="entity-P1_ARTISTE">
	<g id="frame-P1_ARTISTE">
		<rect x="686" y="432" width="114" height="25" fill="#abd9e9" stroke="#abd9e9" stroke-width="0"/>
		<rect x="686" y="457.0" width="114" height="93" fill="#e0f3f8" stroke="#e0f3f8" stroke-width="0"/>
		<rect x="686" y="432" width="114" height="118" fill="none" stroke="#74add1" stroke-width="2"/>
		<line x1="686" y1="457" x2="800" y2="457" stroke="#74add1" stroke-width="1"/>
	</g>
	<text x="705" y="449.7" fill="#000000" font-family="Verdana" font-size="12">P1_ARTISTE</text>
	<text x="691" y="474.7" fill="#000000" font-family="Verdana" font-size="12">idArtiste</text>
	<line x1="691" y1="477" x2="742" y2="477" stroke="#000000" stroke-width="1"/>
	<text x="691" y="491.8" fill="#000000" font-family="Verdana" font-size="12">nomArtiste</text>
	<text x="691" y="508.8" fill="#000000" font-family="Verdana" font-size="12">webArtiste</text>
	<text x="691" y="525.8" fill="#000000" font-family="Verdana" font-size="12">reputationArtiste</text>
	<text x="691" y="542.8" fill="#000000" font-family="Verdana" font-size="12">nationaliteArtiste</text>
</g>

<!-- Entity P1_GALERIE -->
<g id="entity-P1_GALERIE">
	<g id="frame-P1_GALERIE">
		<rect x="693" y="9" width="100" height="25" fill="#abd9e9" stroke="#abd9e9" stroke-width="0"/>
		<rect x="693" y="34.0" width="100" height="111" fill="#e0f3f8" stroke="#e0f3f8" stroke-width="0"/>
		<rect x="693" y="9" width="100" height="136" fill="none" stroke="#74add1" stroke-width="2"/>
		<line x1="693" y1="34" x2="793" y2="34" stroke="#74add1" stroke-width="1"/>
	</g>
	<text x="705" y="26.7" fill="#000000" font-family="Verdana" font-size="12">P1_GALERIE</text>
	<text x="698" y="51.7" fill="#000000" font-family="Verdana" font-size="12">idGalerie</text>
	<line x1="698" y1="54" x2="752" y2="54" stroke="#000000" stroke-width="1"/>
	<text x="698" y="68.7" fill="#000000" font-family="Verdana" font-size="12">nomGalerie</text>
	<text x="698" y="85.8" fill="#000000" font-family="Verdana" font-size="12">dateGalerie</text>
	<text x="698" y="102.8" fill="#000000" font-family="Verdana" font-size="12">prixEntryExpo</text>
	<text x="698" y="119.8" fill="#000000" font-family="Verdana" font-size="12">association</text>
	<text x="698" y="136.8" fill="#000000" font-family="Verdana" font-size="12">adresseGalerie</text>
</g>

<!-- Entity P1_MARCHE -->
<g id="entity-P1_MARCHE">
	<g id="frame-P1_MARCHE">
		<rect x="53" y="297" width="110" height="25" fill="#abd9e9" stroke="#abd9e9" stroke-width="0"/>
		<rect x="53" y="322.0" width="110" height="93" fill="#e0f3f8" stroke="#e0f3f8" stroke-width="0"/>
		<rect x="53" y="297" width="110" height="118" fill="none" stroke="#74add1" stroke-width="2"/>
		<line x1="53" y1="322" x2="163" y2="322" stroke="#74add1" stroke-width="1"/>
	</g>
	<text x="70" y="314.7" fill="#000000" font-family="Verdana" font-size="12">P1_MARCHE</text>
	<text x="58" y="339.7" fill="#000000" font-family="Verdana" font-size="12">idMarche</text>
	<line x1="58" y1="342" x2="113" y2="342" stroke="#000000" stroke-width="1"/>
	<text x="58" y="356.8" fill="#000000" font-family="Verdana" font-size="12">nomMarche</text>
	<text x="58" y="373.8" fill="#000000" font-family="Verdana" font-size="12">dateMarche</text>
	<text x="58" y="390.8" fill="#000000" font-family="Verdana" font-size="12">prixEntryMarche</text>
	<text x="58" y="407.8" fill="#000000" font-family="Verdana" font-size="12">adresseMarche</text>
</g>

<!-- Entity P1_CRITIQUE -->
<g id="entity-P1_CRITIQUE">
	<g id="frame-P1_CRITIQUE">
		<rect x="682" y="170" width="122" height="25" fill="#abd9e9" stroke="#abd9e9" stroke-width="0"/>
		<rect x="682" y="195.0" width="122" height="77" fill="#e0f3f8" stroke="#e0f3f8" stroke-width="0"/>
		<rect x="682" y="170" width="122" height="102" fill="none" stroke="#74add1" stroke-width="2"/>
		<line x1="682" y1="195" x2="804" y2="195" stroke="#74add1" stroke-width="1"/>
	</g>
	<text x="701" y="187.7" fill="#000000" font-family="Verdana" font-size="12">P1_CRITIQUE</text>
	<text x="687" y="212.7" fill="#000000" font-family="Verdana" font-size="12">idCritique</text>
	<line x1="687" y1="215" x2="746" y2="215" stroke="#000000" stroke-width="1"/>
	<text x="687" y="229.8" fill="#000000" font-family="Verdana" font-size="12">nomCritique</text>
	<text x="687" y="246.8" fill="#000000" font-family="Verdana" font-size="12">reputationCritique</text>
	<text x="687" y="263.8" fill="#000000" font-family="Verdana" font-size="12">nationaliteCritique</text>
</g>
</svg>